Crispy Terminal Narrow Black-noserif.ufo
<glyph name="four" format="2">
  <advance width="826"/>
  <unicode hex="0034"/>
  <outline>
    <contour>
      <point x="410" y="0" type="line"/>
      <point x="740" y="0" type="line"/>
      <point x="740" y="683" type="line"/>
      <point x="822" y="683" type="line"/>
      <point x="822" y="901" type="line"/>
      <point x="740" y="901" type="line"/>
      <point x="740" y="1600" type="line"/>
      <point x="410" y="1600" type="line"/>
      <point x="410" y="901" type="line"/>
      <point x="349" y="901" type="line"/>
      <point x="349" y="1013" type="line"/>
      <point x="409" y="1628" type="line"/>
      <point x="103" y="1662" type="line"/>
      <point x="20" y="1012" type="line"/>
      <point x="20" y="683" type="line"/>
      <point x="410" y="683" type="line"/>
    </contour>
  </outline>
</glyph>
<glyph name="six" format="2">
  <advance width="757"/>
  <unicode hex="0036"/>
  <outline>
    <contour>
      <point x="15" y="0" type="line" identifier="uiw6aBUf4P"/>
      <point x="741" y="0" type="line" identifier="jtYkxiUX6G"/>
      <point x="741" y="904" type="line" identifier="2G5L37c87I"/>
      <point x="344" y="904" type="line"/>
      <point x="344" y="1224" type="line"/>
      <point x="380" y="1382" type="line"/>
      <point x="740" y="1382" type="line"/>
      <point x="740" y="1600" type="line" identifier="oGvEEuxnYv"/>
      <point x="141" y="1600" type="line" identifier="xR3pEHbMJx"/>
      <point x="15" y="1236" type="line" identifier="KnMArb0tv8"/>
    </contour>
    <contour>
      <point x="411" y="686" type="line"/>
      <point x="411" y="218" type="line"/>
      <point x="344" y="218" type="line"/>
      <point x="344" y="686" type="line"/>
    </contour>
  </outline>
</glyph>
<glyph name="question" format="2">
  <advance width="716"/>
  <unicode hex="003F"/>
  <outline>
    <contour>
      <point x="218" y="352" type="line"/>
      <point x="698" y="535" type="line"/>
      <point x="698" y="1600" type="line" identifier="TBAYuCfUFX"/>
      <point x="23" y="1600" type="line" identifier="NUrIjqOB7J"/>
      <point x="23" y="867" type="line" identifier="0tk7G4orz6"/>
      <point x="329" y="867" type="line" identifier="vZkeT9KrKR"/>
      <point x="329" y="1428" type="line" identifier="4E754ovOIe"/>
      <point x="393" y="1428" type="line" identifier="ZvzwyrcwpS"/>
      <point x="393" y="562" type="line"/>
      <point x="136" y="455" type="line"/>
    </contour>
    <contour>
      <point x="194" y="0" type="line" identifier="S4rO5KuHiL"/>
      <point x="527" y="0" type="line" identifier="1m237t4hyw"/>
      <point x="525" y="248" type="line"/>
      <point x="191" y="248" type="line" identifier="zfocDyDTCM"/>
    </contour>
  </outline>
</glyph>
<glyph name="C" format="2">
  <advance width="608"/>
  <unicode hex="0043"/>
  <outline>
    <contour>
      <point x="26" y="0" type="line"/>
      <point x="570" y="0" type="line"/>
      <point x="570" y="218" type="line"/>
      <point x="355" y="218" type="line"/>
      <point x="355" y="1122" type="line"/>
      <point x="399" y="1382" type="line"/>
      <point x="569" y="1382" type="line"/>
      <point x="569" y="1600" type="line"/>
      <point x="112" y="1600" type="line"/>
      <point x="26" y="1142" type="line"/>
    </contour>
  </outline>
</glyph>
<glyph name="E" format="2">
  <advance width="575"/>
  <unicode hex="0045"/>
  <outline>
    <contour>
      <point x="38" y="0" type="line"/>
      <point x="512" y="0" type="line"/>
      <point x="512" y="218" type="line"/>
      <point x="367" y="218" type="line"/>
      <point x="367" y="692" type="line"/>
      <point x="476" y="692" type="line"/>
      <point x="476" y="910" type="line"/>
      <point x="367" y="910" type="line"/>
      <point x="367" y="1382" type="line"/>
      <point x="511" y="1382" type="line"/>
      <point x="511" y="1600" type="line"/>
      <point x="38" y="1600" type="line"/>
    </contour>
  </outline>
</glyph>
<glyph name="X" format="2">
  <advance width="767"/>
  <unicode hex="0058"/>
  <outline>
    <contour>
      <point x="8" y="0" type="line"/>
      <point x="341" y="0" type="line"/>
      <point x="339" y="691" type="line"/>
      <point x="425" y="691" type="line"/>
      <point x="423" y="0" type="line"/>
      <point x="756" y="0" type="line"/>
      <point x="757" y="814" type="line"/>
      <point x="457" y="814" type="line"/>
      <point x="654" y="807" type="line"/>
      <point x="755" y="1561" type="line"/>
      <point x="472" y="1603" type="line"/>
      <point x="388" y="908" type="line"/>
      <point x="375" y="908" type="line"/>
      <point x="286" y="1603" type="line"/>
      <point x="4" y="1561" type="line"/>
      <point x="111" y="807" type="line"/>
      <point x="307" y="815" type="line"/>
      <point x="7" y="815" type="line"/>
    </contour>
  </outline>
</glyph>
<glyph name="bracketleft" format="2">
  <advance width="421"/>
  <unicode hex="005B"/>
  <outline>
    <contour>
      <point x="343" y="1475" type="line"/>
      <point x="422" y="1475" type="line"/>
      <point x="422" y="1693" type="line"/>
      <point x="38" y="1693" type="line"/>
      <point x="38" y="-93" type="line"/>
      <point x="417" y="-93" type="line"/>
      <point x="417" y="125" type="line"/>
      <point x="343" y="125" type="line"/>
    </contour>
  </outline>
</glyph>
<glyph name="f" format="2">
  <advance width="420"/>
  <unicode hex="0066"/>
  <outline>
    <contour>
      <point x="57" y="0" type="line"/>
      <point x="57" y="1431" type="line"/>
      <point x="145" y="1600" type="line"/>
      <point x="485" y="1600" type="line"/>
      <point x="485" y="1410" type="line"/>
      <point x="407" y="1410" type="line"/>
      <point x="336" y="1243" type="line"/>
      <point x="336" y="0" type="line"/>
    </contour>
    <contour>
      <point x="21" y="650" type="line"/>
      <point x="21" y="847" type="line"/>
      <point x="35" y="847" type="line"/>
      <point x="210" y="825" type="line"/>
      <point x="333" y="852" type="line"/>
      <point x="427" y="852" type="line"/>
      <point x="427" y="650" type="line"/>
    </contour>
  </outline>
</glyph>
<glyph name="k" format="2">
  <advance width="684"/>
  <unicode hex="006B"/>
  <outline>
    <contour>
      <point x="312" y="621" type="line"/>
      <point x="385" y="621" type="line"/>
      <point x="385" y="0" type="line"/>
      <point x="664" y="0" type="line"/>
      <point x="664" y="811" type="line"/>
      <point x="605" y="811" type="line"/>
      <point x="606" y="811" type="line"/>
      <point x="657" y="1191" type="line"/>
      <point x="398" y="1208" type="line"/>
      <point x="342" y="811" type="line"/>
      <point x="312" y="811" type="line"/>
    </contour>
    <contour>
      <point x="34" y="0" type="line"/>
      <point x="313" y="0" type="line"/>
      <point x="313" y="1700" type="line"/>
      <point x="34" y="1700" type="line"/>
    </contour>
  </outline>
</glyph>
<glyph name="m" format="2">
  <advance width="1020"/>
  <unicode hex="006D"/>
  <outline>
    <contour>
      <point x="22" y="0" type="line"/>
      <point x="301" y="0" type="line"/>
      <point x="301" y="943" type="line"/>
      <point x="358" y="1104" type="line"/>
      <point x="367" y="1104" type="line"/>
      <point x="367" y="0" type="line"/>
      <point x="646" y="0" type="line"/>
      <point x="646" y="1294" type="line"/>
      <point x="94" y="1294" type="line"/>
      <point x="22" y="1132" type="line"/>
    </contour>
    <contour>
      <point x="713" y="0" type="line"/>
      <point x="992" y="0" type="line"/>
      <point x="992" y="1294" type="line"/>
      <point x="678" y="1294" type="line"/>
      <point x="633" y="1200" type="line"/>
      <point x="633" y="1104" type="line"/>
      <point x="713" y="1104" type="line"/>
    </contour>
  </outline>
</glyph>
<glyph name="o" format="2">
  <advance width="672"/>
  <unicode hex="006F"/>
  <outline>
    <contour>
      <point x="650" y="163" type="line"/>
      <point x="650" y="1294" type="line"/>
      <point x="94" y="1294" type="line"/>
      <point x="22" y="1132" type="line"/>
      <point x="22" y="0" type="line"/>
      <point x="578" y="0" type="line"/>
    </contour>
    <contour>
      <point x="371" y="351" type="line"/>
      <point x="314" y="190" type="line"/>
      <point x="301" y="190" type="line"/>
      <point x="301" y="943" type="line"/>
      <point x="358" y="1104" type="line"/>
      <point x="371" y="1104" type="line"/>
    </contour>
  </outline>
</glyph>
<glyph name="C.wide" format="2">
  <advance width="786"/>
  <outline>
    <contour>
      <point x="26" y="0" type="line" identifier="7lPhzTnk2Z"/>
      <point x="756" y="0" type="line" identifier="qJVLZGnkwh"/>
      <point x="756" y="662" type="line" identifier="nDnDHzAMXL"/>
      <point x="426" y="662" type="line" identifier="QX1V08aTu0"/>
      <point x="426" y="218" type="line" identifier="Y750RHTvDj"/>
      <point x="355" y="218" type="line" identifier="L2LsGnXiZ2"/>
      <point x="355" y="1205" type="line" identifier="sUWsr03vF4"/>
      <point x="393" y="1382" type="line" identifier="dbOUe6OhxL"/>
      <point x="425" y="1382" type="line" identifier="5BjRbcud80"/>
      <point x="425" y="938" type="line" identifier="fNVDqwQo2o"/>
      <point x="755" y="938" type="line" identifier="wLqQQx7QVN"/>
      <point x="755" y="1600" type="line" identifier="9eJelv8BOw"/>
      <point x="148" y="1600" type="line" identifier="lfZev3ICaC"/>
      <point x="26" y="1262" type="line" identifier="V1EWIdPahq"/>
    </contour>
  </outline>
</glyph>
<glyph name="F.wide" format="2">
  <advance width="773"/>
  <outline>
    <contour>
      <point x="38" y="0" type="line"/>
      <point x="367" y="0" type="line"/>
      <point x="367" y="602" type="line"/>
      <point x="672" y="602" type="line"/>
      <point x="672" y="820" type="line"/>
      <point x="367" y="820" type="line"/>
      <point x="367" y="1382" type="line"/>
      <point x="423" y="1382" type="line"/>
      <point x="423" y="1038" type="line"/>
      <point x="752" y="1038" type="line"/>
      <point x="752" y="1600" type="line"/>
      <point x="38" y="1600" type="line"/>
    </contour>
  </outline>
</glyph>
<glyph name="G.wide" format="2">
  <advance width="785"/>
  <outline>
    <contour>
      <point x="26" y="0" type="line" identifier="7lPhzTnk2Z"/>
      <point x="758" y="0" type="line" identifier="qJVLZGnkwh"/>
      <point x="758" y="838" type="line" identifier="uek1NNj7De"/>
      <point x="381" y="838" type="line" identifier="qcvimxjndX"/>
      <point x="381" y="620" type="line" identifier="EARaY3Su65"/>
      <point x="428" y="620" type="line" identifier="4m6dHLVhZq"/>
      <point x="428" y="218" type="line" identifier="Y750RHTvDj"/>
      <point x="355" y="218" type="line" identifier="L2LsGnXiZ2"/>
      <point x="355" y="1251" type="line" identifier="sUWsr03vF4"/>
      <point x="404" y="1382" type="line" identifier="dbOUe6OhxL"/>
      <point x="430" y="1382" type="line" identifier="5BjRbcud80"/>
      <point x="430" y="966" type="line" identifier="fNVDqwQo2o"/>
      <point x="760" y="966" type="line" identifier="wLqQQx7QVN"/>
      <point x="760" y="1600" type="line" identifier="9eJelv8BOw"/>
      <point x="150" y="1600" type="line" identifier="lfZev3ICaC"/>
      <point x="26" y="1263" type="line" identifier="V1EWIdPahq"/>
    </contour>
  </outline>
</glyph>
<glyph name="I.narrow" format="2">
  <advance width="563"/>
  <outline>
    <contour>
      <point x="8" y="0" type="line" identifier="u8XZE2STzL"/>
      <point x="555" y="0" type="line" identifier="1Ty0JfMohF"/>
      <point x="556" y="218" type="line" identifier="quzaPWszgr"/>
      <point x="446" y="218" type="line" identifier="1m237t4hyw"/>
      <point x="446" y="1382" type="line" identifier="v7N4yg5XNk"/>
      <point x="556" y="1382" type="line" identifier="9RiQmr3G8U"/>
      <point x="556" y="1600" type="line" identifier="jZjJqwR81q"/>
      <point x="7" y="1600" type="line" identifier="PL3Zqx19x8"/>
      <point x="7" y="1382" type="line" identifier="O5ZoWKLuW7"/>
      <point x="116" y="1382" type="line" identifier="zfocDyDTCM"/>
      <point x="116" y="218" type="line" identifier="S4rO5KuHiL"/>
      <point x="7" y="218" type="line" identifier="aCoxe3fSmw"/>
    </contour>
  </outline>
</glyph>
<glyph name="L.wide" format="2">
  <advance width="773"/>
  <outline>
    <contour>
      <point x="38" y="0" type="line" identifier="wgpFs1yguc"/>
      <point x="38" y="1600" type="line" identifier="d5Di3vNzni"/>
      <point x="367" y="1600" type="line" identifier="46RrD1WET2"/>
      <point x="367" y="218" type="line" identifier="zFXsE8BUYG"/>
      <point x="418" y="218" type="line" identifier="NQmE31PUns"/>
      <point x="418" y="773" type="line" identifier="qiXxY6YhCq"/>
      <point x="748" y="773" type="line" identifier="7exNZv1XSc"/>
      <point x="748" y="0" type="line" identifier="jiO9eX9U07"/>
    </contour>
  </outline>
</glyph>
<glyph name="S.wide" format="2">
  <advance width="767"/>
  <outline>
    <contour>
      <point x="25" y="0" type="line"/>
      <point x="623" y="0" type="line"/>
      <point x="746" y="325" type="line"/>
      <point x="746" y="916" type="line"/>
      <point x="349" y="916" type="line"/>
      <point x="349" y="1242" type="line"/>
      <point x="400" y="1394" type="line"/>
      <point x="410" y="1394" type="line"/>
      <point x="410" y="1074" type="line"/>
      <point x="741" y="1074" type="line"/>
      <point x="741" y="1600" type="line"/>
      <point x="146" y="1600" type="line"/>
      <point x="24" y="1254" type="line"/>
      <point x="24" y="686" type="line"/>
      <point x="416" y="686" type="line"/>
      <point x="416" y="336" type="line"/>
      <point x="364" y="211" type="line"/>
      <point x="352" y="211" type="line"/>
      <point x="353" y="531" type="line"/>
      <point x="25" y="531" type="line"/>
    </contour>
  </outline>
</glyph>
<glyph name="five.wide" format="2">
  <advance width="766"/>
  <outline>
    <contour>
      <point x="25" y="0" type="line" identifier="09VlJ0BjUX"/>
      <point x="743" y="0" type="line" identifier="EagWihqFM8"/>
      <point x="743" y="924" type="line" identifier="KfNuQA7eZe"/>
      <point x="353" y="924" type="line" identifier="At364YZFEy"/>
      <point x="353" y="1382" type="line" identifier="BcuLfvaQKC"/>
      <point x="743" y="1382" type="line" identifier="3ZUkG35meB"/>
      <point x="743" y="1600" type="line" identifier="SaF9ojRFrW"/>
      <point x="23" y="1600" type="line" identifier="F4sQEYelA8"/>
      <point x="23" y="706" type="line" identifier="3sQ8t8BZ6b"/>
      <point x="413" y="706" type="line" identifier="yiV6OCBLHg"/>
      <point x="413" y="218" type="line" identifier="9kdl9SYsn8"/>
      <point x="354" y="218" type="line" identifier="yZDWuX8LLe"/>
      <point x="354" y="587" type="line" identifier="jYb9001DTm"/>
      <point x="25" y="587" type="line" identifier="ho4DrS0rdW"/>
    </contour>
  </outline>
</glyph>
<glyph name="one" format="2">
  <advance width="484"/>
  <outline>
    <contour>
      <point x="457" y="0" type="line"/>
      <point x="457" y="1600" type="line"/>
      <point x="18" y="1600" type="line"/>
      <point x="18" y="1382" type="line"/>
      <point x="127" y="1382" type="line"/>
      <point x="127" y="0" type="line"/>
    </contour>
  </outline>
</glyph>
<glyph name="one.narrow" format="2">
  <advance width="463"/>
  <outline>
    <contour>
      <point x="7" y="0" type="line"/>
      <point x="458" y="0" type="line" identifier="CURJAw79Zl"/>
      <point x="458" y="218" type="line" identifier="0DUCJo8xIi"/>
      <point x="397" y="218" type="line" identifier="5nmxQXofSG"/>
      <point x="397" y="1600" type="line" identifier="4rjIeWbSbx"/>
      <point x="7" y="1600" type="line"/>
      <point x="7" y="1382" type="line"/>
      <point x="68" y="1382" type="line"/>
      <point x="68" y="218" type="line"/>
      <point x="7" y="218" type="line"/>
    </contour>
  </outline>
</glyph>
<glyph name="six.wide" format="2">
  <advance width="778"/>
  <outline>
    <contour>
      <point x="26" y="0" type="line" identifier="uiw6aBUf4P"/>
      <point x="752" y="0" type="line" identifier="jtYkxiUX6G"/>
      <point x="752" y="885" type="line" identifier="2G5L37c87I"/>
      <point x="355" y="885" type="line"/>
      <point x="355" y="1250" type="line"/>
      <point x="404" y="1382" type="line"/>
      <point x="418" y="1382" type="line"/>
      <point x="418" y="1083" type="line"/>
      <point x="748" y="1083" type="line" identifier="Wuidbv6mUe"/>
      <point x="748" y="1600" type="line" identifier="oGvEEuxnYv"/>
      <point x="150" y="1600" type="line" identifier="xR3pEHbMJx"/>
      <point x="26" y="1261" type="line" identifier="KnMArb0tv8"/>
    </contour>
    <contour>
      <point x="422" y="668" type="line"/>
      <point x="422" y="218" type="line"/>
      <point x="355" y="218" type="line"/>
      <point x="355" y="668" type="line"/>
    </contour>
  </outline>
</glyph>
<glyph name="two.wide" format="2">
  <advance width="753"/>
  <outline>
    <contour>
      <point x="32" y="0" type="line"/>
      <point x="733" y="0" type="line" identifier="pzdvPTirLJ"/>
      <point x="733" y="218" type="line"/>
      <point x="361" y="218" type="line"/>
      <point x="361" y="683" type="line"/>
      <point x="730" y="683" type="line" identifier="yyb1NCCI5w"/>
      <point x="730" y="1600" type="line" identifier="5FogYRSgkk"/>
      <point x="28" y="1600" type="line" identifier="svlFvrau4c"/>
      <point x="28" y="1024" type="line" identifier="LQ9fBsTy9K"/>
      <point x="358" y="1024" type="line"/>
      <point x="358" y="1382" type="line"/>
      <point x="400" y="1382" type="line"/>
      <point x="400" y="901" type="line"/>
      <point x="32" y="901" type="line" identifier="teVKnpBcVb"/>
    </contour>
  </outline>
</glyph>
